<?xml version="1.0" encoding="utf-8"?>
<!-- Generator: Adobe Illustrator 26.0.2, SVG Export Plug-In . SVG Version: 6.00 Build 0)  -->
<svg version="1.1" id="Capa_1" xmlns="http://www.w3.org/2000/svg" xmlns:xlink="http://www.w3.org/1999/xlink" x="0px" y="0px"
	 viewBox="0 0 512 512" style="enable-background:new 0 0 512 512;" xml:space="preserve">
<style type="text/css">
	.st0{fill:#D9D9D9;}
	.st1{fill:none;stroke:#B1B1B0;stroke-width:33;stroke-linejoin:round;}
</style>
<path class="st0" d="M76.8,0h358.4C477.6,0,512,34.4,512,76.8v358.4c0,42.4-34.4,76.8-76.8,76.8H76.8C34.4,512,0,477.6,0,435.2V76.8
	C0,34.4,34.4,0,76.8,0z"/>
<g>
	<path class="st1" d="M81,198v116l175,117l175-117V198L256,81L81,198z"/>
	<path class="st1" d="M81,198l175,116l175-116 M256,81v117"/>
	<path class="st1" d="M81,314l175-116l175,116 M256,431V314"/>
</g>
</svg>
